<svg xmlns="http://www.w3.org/2000/svg" width="12" height="20" viewBox="0 0 12 20"><g><g><path fill="#555" d="M7.25 18c0 .687-.563 1.25-1.25 1.25-.688 0-1.25-.563-1.25-1.25 0-.688.562-1.25 1.25-1.25.687 0 1.25.562 1.25 1.25zm3.25-2.5c0 .265-.234.5-.5.5H2a.514.514 0 0 1-.5-.5v-11c0-.266.234-.5.5-.5h8c.266 0 .5.234.5.5zm-3-13.25c0 .14-.11.25-.25.25h-2.5c-.14 0-.25-.11-.25-.25S4.61 2 4.75 2h2.5c.14 0 .25.11.25.25zM12 2c0-1.094-.906-2-2-2H2C.906 0 0 .906 0 2v16c0 1.094.906 2 2 2h8c1.094 0 2-.906 2-2z"/></g></g></svg>